<mxfile host="app.diagrams.net" modified="2024-09-21T00:30:29.976Z" agent="Mozilla/5.0 (Windows NT 10.0; Win64; x64) AppleWebKit/537.36 (KHTML, like Gecko) Chrome/125.0.0.0 Safari/537.36" etag="cCZR9jHZsXVLH0k0uyGc" version="24.4.4" type="device">
  <diagram name="PÃ¡gina-1" id="9Rn2ndNa7kn_bPJGRHuK">
    <mxGraphModel dx="1500" dy="807" grid="1" gridSize="10" guides="1" tooltips="1" connect="1" arrows="1" fold="1" page="1" pageScale="1" pageWidth="827" pageHeight="1169" math="0" shadow="0">
      <root>
        <mxCell id="0" />
        <mxCell id="1" parent="0" />
        <mxCell id="MrhhroRD9w-_8aq0Vlti-1" value="" style="rounded=1;whiteSpace=wrap;html=1;" vertex="1" parent="1">
          <mxGeometry x="40" y="40" width="760" height="70" as="geometry" />
        </mxCell>
        <mxCell id="MrhhroRD9w-_8aq0Vlti-2" value="div(p)" style="rounded=1;whiteSpace=wrap;html=1;" vertex="1" parent="1">
          <mxGeometry x="70" y="45" width="120" height="60" as="geometry" />
        </mxCell>
        <mxCell id="MrhhroRD9w-_8aq0Vlti-3" value="div(p)" style="rounded=1;whiteSpace=wrap;html=1;" vertex="1" parent="1">
          <mxGeometry x="70" y="45" width="120" height="60" as="geometry" />
        </mxCell>
        <mxCell id="MrhhroRD9w-_8aq0Vlti-6" value="div(p)" style="rounded=1;whiteSpace=wrap;html=1;" vertex="1" parent="1">
          <mxGeometry x="700" y="65" width="90" height="40" as="geometry" />
        </mxCell>
        <mxCell id="MrhhroRD9w-_8aq0Vlti-7" value="div(p)" style="rounded=1;whiteSpace=wrap;html=1;" vertex="1" parent="1">
          <mxGeometry x="600" y="65" width="90" height="40" as="geometry" />
        </mxCell>
        <mxCell id="MrhhroRD9w-_8aq0Vlti-8" value="div(p)" style="rounded=1;whiteSpace=wrap;html=1;" vertex="1" parent="1">
          <mxGeometry x="500" y="65" width="90" height="40" as="geometry" />
        </mxCell>
        <mxCell id="MrhhroRD9w-_8aq0Vlti-9" value="div(p)" style="rounded=1;whiteSpace=wrap;html=1;" vertex="1" parent="1">
          <mxGeometry x="400" y="65" width="90" height="40" as="geometry" />
        </mxCell>
        <mxCell id="MrhhroRD9w-_8aq0Vlti-10" value="div(p)" style="rounded=1;whiteSpace=wrap;html=1;" vertex="1" parent="1">
          <mxGeometry x="40" y="130" width="760" height="60" as="geometry" />
        </mxCell>
        <mxCell id="MrhhroRD9w-_8aq0Vlti-11" value="div(p)" style="rounded=1;whiteSpace=wrap;html=1;" vertex="1" parent="1">
          <mxGeometry x="40" y="220" width="90" height="40" as="geometry" />
        </mxCell>
        <mxCell id="MrhhroRD9w-_8aq0Vlti-12" value="div(p)" style="rounded=1;whiteSpace=wrap;html=1;" vertex="1" parent="1">
          <mxGeometry x="40" y="290" width="160" height="40" as="geometry" />
        </mxCell>
        <mxCell id="MrhhroRD9w-_8aq0Vlti-13" value="div(p)" style="rounded=1;whiteSpace=wrap;html=1;" vertex="1" parent="1">
          <mxGeometry x="40" y="360" width="760" height="110" as="geometry" />
        </mxCell>
        <mxCell id="MrhhroRD9w-_8aq0Vlti-14" value="div(p)" style="rounded=1;whiteSpace=wrap;html=1;" vertex="1" parent="1">
          <mxGeometry x="40" y="500" width="160" height="40" as="geometry" />
        </mxCell>
        <mxCell id="MrhhroRD9w-_8aq0Vlti-15" value="div(p)" style="rounded=1;whiteSpace=wrap;html=1;" vertex="1" parent="1">
          <mxGeometry x="40" y="560" width="90" height="40" as="geometry" />
        </mxCell>
        <mxCell id="MrhhroRD9w-_8aq0Vlti-16" value="div(p)" style="rounded=1;whiteSpace=wrap;html=1;" vertex="1" parent="1">
          <mxGeometry x="170" y="560" width="90" height="40" as="geometry" />
        </mxCell>
        <mxCell id="MrhhroRD9w-_8aq0Vlti-17" value="div(p)" style="rounded=1;whiteSpace=wrap;html=1;" vertex="1" parent="1">
          <mxGeometry x="290" y="560" width="90" height="40" as="geometry" />
        </mxCell>
        <mxCell id="MrhhroRD9w-_8aq0Vlti-18" value="div(p)" style="rounded=1;whiteSpace=wrap;html=1;" vertex="1" parent="1">
          <mxGeometry x="414" y="560" width="90" height="40" as="geometry" />
        </mxCell>
        <mxCell id="MrhhroRD9w-_8aq0Vlti-19" value="div(p)" style="rounded=1;whiteSpace=wrap;html=1;" vertex="1" parent="1">
          <mxGeometry x="40" y="620" width="160" height="40" as="geometry" />
        </mxCell>
        <mxCell id="MrhhroRD9w-_8aq0Vlti-20" value="div(p)" style="rounded=1;whiteSpace=wrap;html=1;" vertex="1" parent="1">
          <mxGeometry x="50" y="680" width="740" height="50" as="geometry" />
        </mxCell>
        <mxCell id="MrhhroRD9w-_8aq0Vlti-21" value="div(p)" style="rounded=1;whiteSpace=wrap;html=1;" vertex="1" parent="1">
          <mxGeometry x="44" y="750" width="160" height="40" as="geometry" />
        </mxCell>
        <mxCell id="MrhhroRD9w-_8aq0Vlti-22" value="div(p)" style="rounded=1;whiteSpace=wrap;html=1;" vertex="1" parent="1">
          <mxGeometry x="44" y="850" width="740" height="50" as="geometry" />
        </mxCell>
        <mxCell id="MrhhroRD9w-_8aq0Vlti-23" value="div(p)" style="rounded=1;whiteSpace=wrap;html=1;" vertex="1" parent="1">
          <mxGeometry x="44" y="950" width="740" height="50" as="geometry" />
        </mxCell>
        <mxCell id="MrhhroRD9w-_8aq0Vlti-24" value="div(p)" style="rounded=1;whiteSpace=wrap;html=1;" vertex="1" parent="1">
          <mxGeometry x="44" y="1040" width="740" height="50" as="geometry" />
        </mxCell>
        <mxCell id="MrhhroRD9w-_8aq0Vlti-25" value="div(p)" style="rounded=1;whiteSpace=wrap;html=1;" vertex="1" parent="1">
          <mxGeometry x="44" y="1119" width="740" height="50" as="geometry" />
        </mxCell>
        <mxCell id="MrhhroRD9w-_8aq0Vlti-26" value="div(p)" style="rounded=1;whiteSpace=wrap;html=1;" vertex="1" parent="1">
          <mxGeometry x="44" y="800" width="160" height="40" as="geometry" />
        </mxCell>
        <mxCell id="MrhhroRD9w-_8aq0Vlti-27" value="div(p)" style="rounded=1;whiteSpace=wrap;html=1;" vertex="1" parent="1">
          <mxGeometry x="40" y="910" width="160" height="40" as="geometry" />
        </mxCell>
        <mxCell id="MrhhroRD9w-_8aq0Vlti-28" value="div(p)" style="rounded=1;whiteSpace=wrap;html=1;" vertex="1" parent="1">
          <mxGeometry x="44" y="1000" width="160" height="40" as="geometry" />
        </mxCell>
      </root>
    </mxGraphModel>
  </diagram>
</mxfile>
